HIERARCHY
ROOT Hips
{
	OFFSET 0.000000 8.830580 0.000000
	CHANNELS 6 Xposition Yposition Zposition Zrotation Yrotation Xrotation 
	JOINT Spine
	{
		OFFSET 0.000000 0.010000 0.000000
		CHANNELS 3 Zrotation Yrotation Xrotation
		JOINT Spine1
		{
			OFFSET 0.000000 2.459130 0.000000
			CHANNELS 3 Zrotation Yrotation Xrotation
			JOINT Neck
			{
				OFFSET 0.000000 2.484630 0.000000
				CHANNELS 3 Zrotation Yrotation Xrotation
				JOINT Head_virtual
				{
					OFFSET 0.000000 0.000000 0.000000
					CHANNELS 3 Zrotation Yrotation Xrotation
					JOINT Head
					{
						OFFSET 0.000000 0.927525 0.000000
						CHANNELS 3 Zrotation Yrotation Xrotation
						End Site
						{
							OFFSET 0.000000 0.000000 0.000000
						}
					}
				}
				JOINT LeftUpArm_virtual
				{
					OFFSET 0.000000 0.000000 0.000000
					CHANNELS 3 Zrotation Yrotation Xrotation
					JOINT LeftUpArm
					{
						OFFSET 1.248820 0.000000 0.000000
						CHANNELS 3 Zrotation Yrotation Xrotation
						JOINT LeftForeArm
						{
							OFFSET 2.597580 0.000000 0.000000
							CHANNELS 3 Zrotation Yrotation Xrotation
							JOINT LeftHand
							{
								OFFSET 2.455420 0.000000 0.000000
								CHANNELS 3 Zrotation Yrotation Xrotation
								End Site
								{
									OFFSET 0.000000 0.000000 0.000000
								}
							}
						}
					}
				}
				JOINT RightUpArm_virtual
				{
					OFFSET -0.000000 -0.000000 -0.000000
					CHANNELS 3 Zrotation Yrotation Xrotation
					JOINT RightUpArm
					{
						OFFSET -1.248820 -0.000000 -0.000000
						CHANNELS 3 Zrotation Yrotation Xrotation
						JOINT RightForeArm
						{
							OFFSET -2.597580 -0.000000 -0.000000
							CHANNELS 3 Zrotation Yrotation Xrotation
							JOINT RightHand
							{
								OFFSET -2.455420 -0.000000 -0.000000
								CHANNELS 3 Zrotation Yrotation Xrotation
								End Site
								{
									OFFSET 0.000000 0.000000 0.000000
								}
							}
						}
					}
				}
			}
		}
	}
	JOINT LeftUpLeg
	{
		OFFSET 1.271939 0.000000 0.000000
		CHANNELS 3 Zrotation Yrotation Xrotation
		JOINT LeftLowLeg
		{
			OFFSET 0.000000 -4.342910 0.000000
			CHANNELS 3 Zrotation Yrotation Xrotation
			JOINT LeftFoot
			{
				OFFSET 0.000000 -4.487670 0.000000
				CHANNELS 3 Zrotation Yrotation Xrotation
				JOINT LeftToeBase
				{
					OFFSET 0.000000 0.000000 1.515070
					CHANNELS 3 Zrotation Yrotation Xrotation
					End Site
					{
						OFFSET 0.000000 0.000000 0.000000
					}
				}
			}
		}
	}
	JOINT RightUpLeg
	{
		OFFSET -1.271939 0.000000 0.000000
		CHANNELS 3 Zrotation Yrotation Xrotation
		JOINT RightLowLeg
		{
			OFFSET 0.000000 -4.342910 0.000000
			CHANNELS 3 Zrotation Yrotation Xrotation
			JOINT RightFoot
			{
				OFFSET 0.000000 -4.487670 0.000000
				CHANNELS 3 Zrotation Yrotation Xrotation
				JOINT RightToeBase
				{
					OFFSET 0.000000 0.000000 1.515070
					CHANNELS 3 Zrotation Yrotation Xrotation
					End Site
					{
						OFFSET 0.000000 0.000000 0.000000
					}
				}
			}
		}
	}
}
MOTION
Frames: 8
Frame Time: 0.041667
-15.084830 9.098778 47.842844 -26.121540 -65.722789 21.278250 1.788874 13.251305 -11.366823 9.961059 -30.548438 24.083780 0.000000 0.000000 0.000000 27.898346 -67.240674 -9.229102 25.956731 37.812842 -62.988274 -27.834700 -9.280890 -6.758150 -27.634501 -43.364201 21.149200 180.000000 -68.653999 -180.000000 52.568199 -23.296301 -2.291810 22.387501 -2.140240 -3.159730 19.177200 12.423800 -4.849010 180.000000 59.585999 180.000000 -77.944000 33.126701 -10.571400 4.119806 18.272400 4.839124 0.000000 0.000000 23.400200 -10.477320 21.753370 -8.405445 0.000000 0.000000 -12.805560 1.016402 -14.399328 -10.240427 0.000000 0.000000 22.715300 11.737129 -23.977237 17.459031 0.000000 0.000000 -32.649200 
-15.149381 9.104743 47.772975 -28.219150 -67.403534 23.607544 1.705076 13.539124 -11.580691 10.159594 -30.245759 24.178276 0.000000 0.000000 0.000000 27.867484 -67.023553 -9.548162 25.765121 37.933847 -63.112604 -27.888800 -9.094480 -7.004940 -27.792801 -43.295399 21.547501 -180.000000 -68.800003 180.000000 52.218399 -23.546499 -2.732750 22.436800 -2.023000 -2.776400 19.175301 12.799700 -4.921210 180.000000 59.474998 180.000000 -77.830002 32.681198 -10.263800 4.464473 18.398546 4.936155 0.000000 0.000000 23.519800 -11.682791 22.392466 -8.700470 0.000000 0.000000 -12.985430 1.485468 -16.587862 -10.214711 0.000000 0.000000 21.575399 11.927860 -25.043359 17.821817 0.000000 0.000000 -32.394300 
-15.215452 9.110673 47.695480 -30.558368 -69.248791 26.240302 1.406105 13.847068 -11.772720 10.499536 -29.817346 24.211084 0.000000 0.000000 0.000000 27.362533 -66.668747 -9.557494 25.591895 37.982992 -63.258968 -27.921900 -9.057470 -7.363850 -28.004101 -43.088100 22.014799 -180.000000 -68.917999 180.000000 52.735199 -23.544800 -2.848200 22.270201 -1.847360 -2.888570 19.509899 13.054600 -4.630110 -180.000000 59.641998 -180.000000 -78.018799 33.084900 -10.663000 4.779032 18.922705 5.047430 0.000000 0.000000 23.627100 -12.915492 22.858925 -8.871499 0.000000 0.000000 -13.196840 2.137556 -18.685402 -10.466391 0.000000 0.000000 20.620100 11.967448 -25.751106 17.884553 0.000000 0.000000 -32.302299 
-15.284085 9.116050 47.609036 -33.322354 -71.099049 29.354827 0.916871 13.937797 -11.838058 11.248753 -29.382105 23.919290 0.000000 0.000000 0.000000 26.163844 -66.116918 -9.302125 25.498426 37.777445 -63.437849 -28.359900 -8.921880 -7.131010 -27.164301 -43.143101 21.627399 -180.000000 -68.924004 180.000000 53.295399 -23.362400 -2.907850 21.918100 -1.583510 -2.834870 19.775299 13.317700 -4.261030 -180.000000 59.549004 -180.000000 -77.755997 33.064400 -10.182600 5.182895 19.738322 5.153120 0.000000 0.000000 23.767900 -14.131943 23.007414 -8.983191 0.000000 0.000000 -13.183470 3.035202 -20.814663 -10.929220 0.000000 0.000000 19.823601 11.940281 -25.726892 18.173012 0.000000 0.000000 -32.212500 
-15.352328 9.120170 47.513447 -36.434899 -72.846783 33.031143 0.452897 14.077651 -12.024482 11.599103 -28.991198 23.700502 0.000000 0.000000 0.000000 25.672091 -65.743054 -9.243939 25.181462 37.977023 -63.671470 -28.304100 -8.741080 -7.440050 -26.837900 -43.006802 22.072599 180.000000 -68.843002 -180.000000 53.919102 -22.807301 -3.063750 21.927500 -1.472230 -2.786560 19.881399 13.867300 -4.002570 -180.000000 59.547997 -180.000000 -77.601601 33.165001 -10.135600 5.581641 20.673482 5.026193 0.000000 0.000000 23.978500 -15.319220 22.930803 -9.014068 0.000000 0.000000 -13.538770 4.214146 -22.773813 -11.795121 0.000000 0.000000 19.461599 13.696402 -25.244078 17.649804 0.000000 0.000000 -31.464500 
-15.426986 9.122857 47.420670 -40.143253 -74.519660 37.184733 0.228762 14.313220 -12.217009 11.395497 -28.741063 23.708945 0.000000 0.000000 0.000000 24.687440 -65.211056 -8.658779 24.991820 38.183423 -63.835064 -28.227900 -8.693710 -7.692030 -27.567301 -43.025398 22.370800 180.000000 -69.067001 180.000000 54.123699 -22.823099 -3.134250 21.986799 -1.298660 -2.745180 20.099199 14.470000 -3.783930 180.000000 59.524002 180.000000 -77.714104 32.671700 -11.076100 6.055264 21.781370 5.231281 0.000000 0.000000 23.942101 -16.450184 22.774767 -8.966482 0.000000 0.000000 -13.857850 5.464403 -24.434315 -12.642663 0.000000 0.000000 19.588100 15.680717 -25.049975 16.557350 0.000000 0.000000 -29.713300 
-15.505283 9.123509 47.322646 -44.293890 -76.005513 41.794469 0.023938 14.434279 -12.339962 11.148344 -28.559432 23.483975 0.000000 0.000000 0.000000 22.953128 -64.523439 -7.389260 24.873125 38.270708 -63.993551 -28.139000 -8.592510 -7.737170 -27.672100 -43.262100 22.490101 180.000000 -69.238998 -180.000000 54.174099 -22.253599 -3.532250 22.010900 -1.060220 -2.424140 20.192600 15.105300 -3.894050 180.000000 59.463997 180.000000 -77.636497 32.211899 -12.127500 6.567567 22.935445 5.535011 0.000000 0.000000 23.739901 -17.559822 22.580078 -8.917960 0.000000 0.000000 -14.013150 6.788446 -25.471551 -13.565863 0.000000 0.000000 20.139799 16.906426 -25.717760 14.928019 0.000000 0.000000 -27.470700 
-15.591595 9.123735 47.223572 -49.024491 -77.301807 46.934108 -0.084326 14.514778 -12.527520 10.643610 -28.513776 23.366160 0.000000 0.000000 0.000000 21.058972 -63.798883 -5.886256 24.701073 38.364493 -64.147844 -28.033199 -8.488950 -7.263300 -27.295700 -43.944599 21.944799 -180.000000 -69.431999 180.000000 54.114300 -21.627701 -3.920270 22.036900 -0.737337 -2.365270 20.238100 15.566300 -3.925310 180.000000 59.320999 180.000000 -77.501503 31.652700 -12.067600 7.143396 24.045187 5.994544 0.000000 0.000000 23.445801 -18.647141 22.399389 -8.819548 0.000000 0.000000 -14.206559 8.010234 -25.876793 -14.314700 0.000000 0.000000 20.754499 17.114890 -26.870951 13.297730 0.000000 0.000000 -25.391100 
